<mxfile host="app.diagrams.net" modified="2021-09-08T01:15:29.972Z" agent="5.0 (Windows NT 10.0; Win64; x64) AppleWebKit/537.36 (KHTML, like Gecko) Chrome/92.0.4515.131 Safari/537.36" etag="unarlS15qUaaXEOlfZDW" version="15.0.3" type="github">
  <diagram id="cdUffoY6zjXfF5_aI3OV" name="第 1 页">
    <mxGraphModel dx="872" dy="770" grid="1" gridSize="10" guides="1" tooltips="1" connect="1" arrows="1" fold="1" page="1" pageScale="1" pageWidth="827" pageHeight="1169" math="0" shadow="0">
      <root>
        <mxCell id="0" />
        <mxCell id="1" parent="0" />
        <mxCell id="D11ho6Hn2QxXih_wh8M_-5" value="" style="edgeStyle=orthogonalEdgeStyle;shape=flexArrow;rounded=0;orthogonalLoop=1;jettySize=auto;html=1;" edge="1" parent="1" source="D11ho6Hn2QxXih_wh8M_-1" target="D11ho6Hn2QxXih_wh8M_-2">
          <mxGeometry relative="1" as="geometry" />
        </mxCell>
        <mxCell id="D11ho6Hn2QxXih_wh8M_-1" value="1.导入依赖坐标" style="rounded=1;whiteSpace=wrap;html=1;shadow=1;" vertex="1" parent="1">
          <mxGeometry x="30" y="160" width="120" height="60" as="geometry" />
        </mxCell>
        <mxCell id="D11ho6Hn2QxXih_wh8M_-6" value="" style="edgeStyle=orthogonalEdgeStyle;shape=flexArrow;rounded=0;orthogonalLoop=1;jettySize=auto;html=1;" edge="1" parent="1" source="D11ho6Hn2QxXih_wh8M_-2" target="D11ho6Hn2QxXih_wh8M_-3">
          <mxGeometry relative="1" as="geometry" />
        </mxCell>
        <mxCell id="D11ho6Hn2QxXih_wh8M_-2" value="2.编写配置文件" style="rounded=1;whiteSpace=wrap;html=1;shadow=1;" vertex="1" parent="1">
          <mxGeometry x="30" y="260" width="120" height="60" as="geometry" />
        </mxCell>
        <mxCell id="D11ho6Hn2QxXih_wh8M_-3" value="3.编写JavaBean" style="rounded=1;whiteSpace=wrap;html=1;shadow=1;" vertex="1" parent="1">
          <mxGeometry x="30" y="360" width="120" height="60" as="geometry" />
        </mxCell>
        <mxCell id="D11ho6Hn2QxXih_wh8M_-7" value="" style="strokeWidth=2;html=1;shape=mxgraph.flowchart.annotation_2;align=left;labelPosition=right;pointerEvents=1;shadow=1;" vertex="1" parent="1">
          <mxGeometry x="160" y="240" width="50" height="100" as="geometry" />
        </mxCell>
        <mxCell id="D11ho6Hn2QxXih_wh8M_-8" value="mybatis核心配置" style="rounded=1;whiteSpace=wrap;html=1;shadow=1;" vertex="1" parent="1">
          <mxGeometry x="250" y="180" width="120" height="60" as="geometry" />
        </mxCell>
        <mxCell id="D11ho6Hn2QxXih_wh8M_-9" value="sql语句映射配置" style="rounded=1;whiteSpace=wrap;html=1;shadow=1;" vertex="1" parent="1">
          <mxGeometry x="250" y="250" width="120" height="60" as="geometry" />
        </mxCell>
        <mxCell id="D11ho6Hn2QxXih_wh8M_-10" value="" style="rounded=1;whiteSpace=wrap;html=1;shadow=1;" vertex="1" parent="1">
          <mxGeometry x="250" y="320" width="120" height="60" as="geometry" />
        </mxCell>
      </root>
    </mxGraphModel>
  </diagram>
</mxfile>
